<svg width="70" height="70" fill="none">
  <path d="M69.7775 34.8345l-1.6516-10.4262c-.5981-3.7775-2.3766-7.2688-5.0805-9.9736l-7.4867-7.48535c-2.6975-2.6961-6.1769-4.47071-9.9408-5.06543L35.1316.222785C31.3704-.373308 27.5177.237824 24.123 1.96732l-9.45 4.81386c-3.402 1.73378-6.16782 4.50002-7.90102 7.90232l-4.79882 9.4172C.235162 27.5118-.378393 31.3855.22042 35.1667l1.65156 10.4276c.59813 3.7775 2.37655 7.2688 5.08047 9.9736l7.48675 7.4854c2.6959 2.6954 6.1756 4.4685 9.9408 5.0654l10.4863 1.6597c3.7612.5961 7.6139-.015 11.0086-1.7431l9.45-4.8139c3.4017-1.7342 6.1674-4.5003 7.901-7.9023l4.7988-9.4158c1.7377-3.4125 2.3516-7.2872 1.7528-11.0688zM24.0628 50.3124c-2.4158 0-4.375-1.9591-4.375-4.375 0-2.4158 1.9592-4.375 4.375-4.375s4.375 1.9592 4.375 4.375c0 2.4159-1.9592 4.375-4.375 4.375zm4.375-21.875c-2.4158 0-4.375-1.9591-4.375-4.375 0-2.4158 1.9592-4.375 4.375-4.375s4.375 1.9592 4.375 4.375c0 2.4159-1.9592 4.375-4.375 4.375zm21.875 17.5c-2.4158 0-4.375-1.9591-4.375-4.375 0-2.4158 1.9592-4.375 4.375-4.375s4.375 1.9592 4.375 4.375c0 2.4159-1.9592 4.375-4.375 4.375z" fill="#F2994A"/>
</svg>
