<svg width="70" height="74" fill="none">
  <path d="M66.7188 18.5H65.625v-6.9375C65.625 5.0875 52.0625 0 35 0S4.375 5.0875 4.375 11.5625V18.5H3.28125C1.46973 18.5 0 20.0523 0 21.9688v11.5624C0 35.4463 1.46973 37 3.28125 37H4.375v23.125c0 2.5539 1.95918 4.625 4.375 4.625v4.625c0 2.5539 1.9592 4.625 4.375 4.625H17.5c2.4158 0 4.375-2.0711 4.375-4.625V64.75h26.25v4.625c0 2.5539 1.9592 4.625 4.375 4.625h4.375c2.4158 0 4.375-2.0711 4.375-4.625V64.75h.875c2.1875 0 3.5-1.85 3.5-3.7V37h1.0938C68.5303 37 70 35.4463 70 33.5312V21.9688c0-1.9165-1.4697-3.4688-3.2812-3.4688zM15.3125 57.8125c-2.4158 0-4.375-2.0711-4.375-4.625s1.9592-4.625 4.375-4.625 4.375 2.0711 4.375 4.625-1.9592 4.625-4.375 4.625zM17.5 41.625c-2.4158 0-4.375-2.0711-4.375-4.625V18.5c0-2.5539 1.9592-4.625 4.375-4.625h35c2.4158 0 4.375 2.0711 4.375 4.625V37c0 2.5539-1.9592 4.625-4.375 4.625h-35zm37.1875 16.1875c-2.4158 0-4.375-2.0711-4.375-4.625s1.9592-4.625 4.375-4.625 4.375 2.0711 4.375 4.625-1.9592 4.625-4.375 4.625z" fill="#F2994A"/>
</svg>
