<svg width="19" height="19" fill="none">
  <path d="M8.999 4.37695c-1.22636 0-2.40249.48717-3.26966 1.35434-.86717.86717-1.35434 2.0433-1.35434 3.26966 0 1.22635.48717 2.40245 1.35434 3.26965.86717.8672 2.0433 1.3544 3.26966 1.3544 1.2264 0 2.4025-.4872 3.2697-1.3544.8671-.8672 1.3543-2.0433 1.3543-3.26965 0-1.22636-.4872-2.40249-1.3543-3.26966-.8672-.86717-2.0433-1.35434-3.2697-1.35434zm0 7.62705c-.79671 0-1.56079-.3165-2.12415-.8799-.56336-.5634-.87985-1.32744-.87985-2.12415 0-.79671.31649-1.56079.87985-2.12415.56336-.56335 1.32744-.87985 2.12415-.87985.79671 0 1.5608.3165 2.1241.87985.5634.56336.8799 1.32744.8799 2.12415 0 .79671-.3165 1.56075-.8799 2.12415-.5633.5634-1.32739.8799-2.1241.8799zm4.807-6.71909c.5954 0 1.078-.48264 1.078-1.078 0-.59537-.4826-1.078-1.078-1.078-.5954 0-1.078.48263-1.078 1.078 0 .59536.4826 1.078 1.078 1.078z" fill="#fff"/>
  <path d="M17.531 3.11088c-.2315-.59782-.5853-1.14071-1.0387-1.59394-.4534-.45322-.9964-.806786-1.5943-1.038057-.6997-.262643-1.4388-.4046591-2.186-.4200003-.963-.042-1.268-.05399989-3.71-.05399989s-2.755-1e-7-3.71.05399989C4.54539.0734396 3.80676.215484 3.108.478883c-.59806.231001-1.14124.584467-1.59467 1.037727-.45343.45326-.807102.9963-1.03833 1.59427-.262695.69962-.4043855 1.43884-.419 2.186-.043.962-.056 1.267-.056 3.71 0 2.44202 0 2.75302.056 3.71002.015.748.156 1.486.419 2.187.231878.5977.5859 1.1406 1.03944 1.5938.45354.4532.99662.8068 1.59456 1.0382.69743.2732 1.43637.4254 2.185.45.963.042 1.268.055 3.71.055s2.755 0 3.71-.055c.7471-.0152 1.4862-.1569 2.186-.419.5978-.2318 1.1406-.5857 1.594-1.039.4533-.4534.8072-.9963 1.039-1.594.263-.7.404-1.438.419-2.186.043-.962.056-1.267.056-3.71002 0-2.443 0-2.753-.056-3.71-.0116-.75772-.1541-1.50775-.421-2.217zm-1.218 9.53202c-.0064.5763-.1116 1.1472-.311 1.688-.1502.3889-.3801.742-.6749 1.0367-.2949.2946-.6481.5243-1.0371.6743-.5348.1984-1.0996.3036-1.67.311-.95.044-1.218.055-3.654.055-2.438 0-2.687 0-3.655-.055-.57007-.007-1.13467-.1122-1.669-.311-.39031-.149-.745-.3783-1.04111-.6731-.29611-.2947-.52705-.6483-.67789-1.0379-.19655-.535-.30169-1.0992-.311-1.669-.043-.95-.053-1.218-.053-3.65402 0-2.437 0-2.686.053-3.655.00646-.57597.11166-1.14658.311-1.687.305-.789.93-1.41 1.719-1.712.53459-.19786 1.09903-.30303 1.669-.311.951-.043 1.218-.055 3.655-.055s2.687 0 3.654.055c.5704.00686 1.1354.11207 1.67.311.3889.15028.7421.3802 1.037.67503.2948.29483.5247.64804.675 1.03697.1966.53495.3017 1.09916.311 1.669.043.951.054 1.218.054 3.655 0 2.43602 0 2.69802-.043 3.65402h-.011v-.001z" fill="#fff"/>
</svg>
