<svg width="20" height="16" fill="none">
  <path d="M17 0H3C2.20435 0 1.44129.316071.87868.87868.316071 1.44129 0 2.20435 0 3v10c0 .7956.316071 1.5587.87868 2.1213C1.44129 15.6839 2.20435 16 3 16h14c.7956 0 1.5587-.3161 2.1213-.8787C19.6839 14.5587 20 13.7956 20 13V3c0-.79565-.3161-1.55871-.8787-2.12132C18.5587.316071 17.7956 0 17 0zm-.67 2L10 6.75 3.67 2h12.66zM17 14H3c-.26522 0-.51957-.1054-.70711-.2929C2.10536 13.5196 2 13.2652 2 13V3.25L9.4 8.8c.1731.12982.38363.2.6.2.2164 0 .4269-.07018.6-.2L18 3.25V13c0 .2652-.1054.5196-.2929.7071S17.2652 14 17 14z" fill="#fff"/>
</svg>
