<svg width="60" height="60" fill="none">
  <path d="M20.1562 19.7917H7.03123c-.77355 0-1.51541-.3073-2.0624-.8543-.54698-.547-.85427-1.2889-.85427-2.0624V3.75c0-.77355.30729-1.51542.85427-2.0624.54699-.54698 1.28885-.854268 2.0624-.854268.77355 0 1.51541.307288 2.06239.854268.54698.54698.85428 1.28885.85428 2.0624v10.2083h10.2083c.7736 0 1.5154.3073 2.0624.8543.547.547.8543 1.2888.8543 2.0624 0 .7735-.3073 1.5154-.8543 2.0624-.547.547-1.2888.8543-2.0624.8543z" fill="#F2994A"/>
  <path d="M56.25 32.9167c-.7735 0-1.5154-.3073-2.0624-.8543-.547-.547-.8543-1.2888-.8543-2.0624.0023-5.1347-1.6903-10.1265-4.8151-14.2009-3.1248-4.0744-7.507-7.00358-12.4666-8.3329-4.9596-1.32933-10.2193-.98451-14.9629.98094-4.7437 1.96546-8.7059 5.44166-11.27203 9.88916-.38755.6695-1.02518 1.1576-1.77263 1.357-.74745.1993-1.54349.0936-2.21299-.2939-.66951-.3876-1.15764-1.0252-1.35702-1.7727-.19937-.7474-.09366-1.5434.29389-2.2129C7.97699 9.85528 12.9308 5.51122 18.8607 3.05551 24.7907.599793 31.3653.169706 37.5646 1.83197 43.7639 3.49423 49.2414 7.15592 53.1473 12.249 57.0531 17.342 59.169 23.5817 59.1667 30c0 .7736-.3073 1.5154-.8543 2.0624-.547.547-1.2888.8543-2.0624.8543zm-3.2812 26.25c-.7736 0-1.5155-.3073-2.0624-.8543-.547-.547-.8543-1.2888-.8543-2.0624V46.0417H39.8438c-.7736 0-1.5155-.3073-2.0624-.8543-.547-.547-.8543-1.2888-.8543-2.0624 0-.7735.3073-1.5154.8543-2.0624.5469-.547 1.2888-.8543 2.0624-.8543h13.125c.7735 0 1.5154.3073 2.0624.8543.5469.547.8542 1.2889.8542 2.0624V56.25c0 .7736-.3073 1.5154-.8542 2.0624-.547.547-1.2889.8543-2.0624.8543z" fill="#F2994A"/>
  <path d="M30 59.1667c-7.7327-.0093-15.1459-3.0852-20.61374-8.553C3.91846 45.1459.842575 37.7326.833313 30c0-.7735.307287-1.5154.854267-2.0624.54699-.547 1.28885-.8543 2.0624-.8543.77355 0 1.51541.3073 2.06239.8543.54698.547.85428 1.2889.85428 2.0624-.00222 5.1347 1.69038 10.1265 4.81515 14.2009 3.1247 4.0744 7.5069 7.0036 12.4666 8.3329 4.9596 1.3293 10.2193.9845 14.9629-.9809 4.7436-1.9655 8.7059-5.4417 11.272-9.8891.1919-.3316.4472-.622.7514-.8549.3041-.2328.6511-.4034 1.0212-.5022.3701-.0987.7561-.1235 1.1358-.0731.3797.0504.7457.1751 1.0772.367.3315.1919.622.4472.8548.7514.2329.3041.4035.6512.5022 1.0213.0988.3701.1236.756.0732 1.1357-.0504.3797-.1752.7457-.367 1.0773-2.5652 4.423-6.2447 8.0967-10.6718 10.6549C40.1332 57.7994 35.113 59.1528 30 59.1667z" fill="#F2994A"/>
</svg>
