<svg width="22" height="32" fill="none">
  <path d="M5.18181 0C3.72727 0 3.72727 1.45455 3.72727 1.45455L.818176 14.5455v2.909c0 2.979 2.909094 2.9091 2.909094 2.9091H18.2727s2.9091 0 2.9091-2.9091v-2.909L18.2727 1.45455S18.2727 0 16.8182 0H5.18181zm1.45455 2.90909h8.72724l1.4546 8.72731H5.18181l1.45455-8.72731zM5.18181 14.5455c.38577 0 .75574.1532 1.02852.426.27278.2728.42603.6427.42603 1.0285 0 .3858-.15325.7557-.42603 1.0285-.27278.2728-.64275.426-1.02852.426-.38577 0-.75574-.1532-1.02852-.426-.27278-.2728-.42602-.6427-.42602-1.0285 0-.3858.15324-.7557.42602-1.0285.27278-.2728.64275-.426 1.02852-.426zm5.09089 0h1.4546c.1929 0 .3778.0766.5142.213.1364.1364.213.3213.213.5142 0 .1929-.0766.3779-.213.5143-.1364.1364-.3213.213-.5142.213h-1.4546c-.1929 0-.37785-.0766-.51424-.213s-.21301-.3214-.21301-.5143c0-.1929.07662-.3778.21301-.5142.13639-.1364.32134-.213.51424-.213zm6.5455 0c.3857 0 .7557.1532 1.0285.426.2728.2728.426.6427.426 1.0285 0 .3858-.1532.7557-.426 1.0285-.2728.2728-.6428.426-1.0285.426-.3858 0-.7558-.1532-1.0285-.426-.2728-.2728-.4261-.6427-.4261-1.0285 0-.3858.1533-.7557.4261-1.0285.2727-.2728.6427-.426 1.0285-.426zM3.72727 23.2727L.818176 32H5.18181l.97164-2.9091h9.69305L16.8182 32h4.3636l-2.9091-8.7273h-4.3636l.9716 2.9091H7.11927l.97163-2.9091H3.72727z" fill="#fff"/>
</svg>
