<svg width="30" height="22" fill="none">
  <path d="M0 5.00004h13l1 2H1l-1-2zm1.33333 4H14.3333l1 1.99996H2.33333l-1-1.99996zM23 19.6667c1.1067 0 2-.8933 2-2s-.8933-2-2-2-2 .8933-2 2 .8933 2 2 2zm2-11.99999h-3.3333V11h5.9466L25 7.66671zM9.66667 19.6667c1.10663 0 2.00003-.8933 2.00003-2s-.8934-2-2.00003-2c-1.10667 0-2 .8933-2 2s.89333 2 2 2zM25.6667 5.66671l4 5.33329v6.6667H27c0 2.2133-1.7867 4-4 4-2.2133 0-4-1.7867-4-4h-5.3333c0 2.2133-1.8 4-4.00003 4-2.21334 0-4-1.7867-4-4H3V13h2.66667v2H6.68c.73333-.8133 1.8-1.3333 2.98667-1.3333 1.18663 0 2.25333.52 2.98663 1.3333H19V3.00004H3C3 1.52004 4.18667.333374 5.66667.333374H21.6667V5.66671h4z" fill="#fff"/>
</svg>
