<svg width="14" height="12" fill="none">
  <path d="M13.5 1.97344c-.4781.20625-.9984.35469-1.5344.4125.5565-.33057.9731-.85281 1.1719-1.468746-.5221.310606-1.0941.528416-1.6906.643746-.2493-.26652-.5508-.47884-.8858-.623734-.3349-.144895-.69615-.219256-1.06109-.21845-1.47657 0-2.66407 1.196874-2.66407 2.665624 0 .20625.025.4125.06563.61094-2.21094-.11563-4.18281-1.17188-5.49375-2.78906-.23887.40799-.36404.87254-.3625 1.34531 0 .925.47031 1.74062 1.1875 2.22031-.42265-.01664-.8354-.13281-1.20469-.33906v.03281c0 1.29531.91563 2.36875 2.13594 2.61563-.22913.05951-.46483.08996-.70156.09062-.17344 0-.3375-.01719-.50313-.04062.3375 1.05625 1.32031 1.82343 2.49063 1.84843-.91563.71719-2.0625 1.13911-3.30782 1.13911-.223434 0-.429684-.0079-.643746-.0329 1.181246.7579 2.582816 1.1954 4.092186 1.1954 4.9 0 7.58127-4.05942 7.58127-7.58286 0-.11562 0-.23125-.0078-.34687.5187-.37969.9734-.85 1.3359-1.37813z" fill="#fff"/>
</svg>
