<svg width="28" height="20" fill="none">
  <path d="M5.99469 5.99996c1.884 0 2.88-.996 3.60666-1.724.65335-.65333.97465-.94267 1.72265-.94267s1.0694.28934 1.7227.94267c.7267.728 1.7227 1.724 3.608 1.724 1.8867 0 2.884-.996 3.6133-1.724.6547-.65333.976-.94267 1.7267-.94267.7507 0 1.072.28934 1.7267.94267.728.728 1.7253 1.724 3.612 1.724V3.33329c-.7507 0-1.072-.28933-1.7267-.94266-.728-.728-1.7253-1.724004-3.612-1.724004s-2.8827.996004-3.612 1.722664c-.6547.65467-.9747.944-1.728.944-.7493 0-1.0693-.28933-1.7227-.94266-.7266-.728-1.7226-1.724004-3.608-1.724004-1.88531 0-2.88131.996004-3.60798 1.724004-.65333.65333-.97333.94266-1.72133.94266s-1.068-.28933-1.72134-.94266C3.54669 1.66263 2.55069.666626.666687.666626V3.33329c.748003 0 1.068003.28934 1.721333.94267.72667.728 1.72267 1.724 3.60667 1.724zm0 6.66664c1.884 0 2.88-.996 3.60666-1.724.65335-.6533.97465-.94264 1.72265-.94264s1.0694.28934 1.7227.94264c.7267.728 1.7227 1.724 3.608 1.724 1.8867 0 2.884-.996 3.6133-1.724.6547-.6533.976-.94264 1.7267-.94264.7507 0 1.072.28934 1.7267.94264.728.728 1.7253 1.724 3.612 1.724V9.99996c-.7507 0-1.072-.28933-1.7267-.94267-.728-.728-1.7253-1.724-3.612-1.724s-2.8827.996-3.612 1.72267c-.6547.65467-.9747.944-1.728.944-.7493 0-1.0693-.28933-1.7227-.94267-.7266-.728-1.7226-1.724-3.608-1.724-1.88531 0-2.88131.996-3.60798 1.724-.65333.65334-.97333.94267-1.72133.94267s-1.068-.28933-1.72134-.94267c-.72666-.728-1.72266-1.724-3.606663-1.724v2.66667c.748003 0 1.068003.28934 1.721333.94264.72667.728 1.72267 1.724 3.60667 1.724zm0 6.6667c1.884 0 2.88-.996 3.60666-1.724.65335-.6533.97465-.9427 1.72265-.9427s1.0694.2894 1.7227.9427c.7267.728 1.7227 1.724 3.608 1.724 1.8867 0 2.884-.996 3.6133-1.724.6547-.6533.976-.9427 1.7267-.9427.7507 0 1.072.2894 1.7267.9427.728.728 1.7253 1.724 3.612 1.724v-2.6667c-.7507 0-1.072-.2893-1.7267-.9426-.728-.728-1.7253-1.724-3.612-1.724s-2.8827.996-3.612 1.7226c-.6547.6547-.9747.944-1.728.944-.7493 0-1.0693-.2893-1.7227-.9426-.7266-.728-1.7226-1.724-3.608-1.724-1.88531 0-2.88131.996-3.60798 1.724-.65333.6533-.97333.9426-1.72133.9426s-1.068-.2893-1.72134-.9426C3.54669 14.996 2.55069 14 .666687 14v2.6666c.748003 0 1.068003.2894 1.721333.9427.72667.728 1.72267 1.724 3.60667 1.724z" fill="#fff"/>
</svg>
